<!-- Generated by IcoMoon.io -->
<svg version="1.1" xmlns="http://www.w3.org/2000/svg" width="24" height="32" viewBox="0 0 24 32">
<title>chesspuzzl</title>
<path fill="#0c3e96" d="M12.213 4.189c0.22 0.099 0.408 0.198 0.628 0.287s0.408 0.187 0.617 0.287l0.287-0.573c-0.12-0.051-0.234-0.114-0.342-0.187-0.141-0.052-0.277-0.114-0.408-0.187-0.069-0.040-0.143-0.069-0.22-0.088 0.254-0.606 0.507-1.168 0.716-1.808 0.254 0.132 0.507 0.22 0.728 0.353 0.279 0.127 0.548 0.274 0.805 0.441 0.386 0.213 0.754 0.457 1.102 0.728-0.463 0.727-0.937 1.422-1.4 2.138 0.195 0.141 0.383 0.291 0.562 0.452 0.176 0.134 0.342 0.282 0.496 0.441l0.441-0.474-0.066-0.066c-0.088-0.099-0.22-0.187-0.342-0.32s-0.287-0.22-0.441-0.342c0.375-0.507 0.75-1.014 1.157-1.543 0.079 0.080 0.164 0.153 0.253 0.22l0.716 0.628 0.342 0.342c0.276 0.287 0.562 0.595 0.838 0.915l-0.496 0.441-1.323 1.301c0.165 0.187 0.287 0.375 0.441 0.562l0.375 0.573 0.529-0.353c0 0 0 0 0-0.055-0.121-0.198-0.276-0.419-0.397-0.606-0.036-0.058-0.080-0.11-0.132-0.154v-0.066c0.463-0.375 0.959-0.75 1.466-1.102 0.276 0.386 0.562 0.727 0.816 1.102l0.65 1.235c0.051 0.102 0.091 0.209 0.121 0.32-0.75 0.342-1.466 0.716-2.204 1.102l0.287 0.628c0.088 0.22 0.154 0.441 0.22 0.661l0.584-0.187c0-0.099-0.055-0.22-0.088-0.32-0.062-0.124-0.113-0.253-0.154-0.386-0.036-0.106-0.080-0.209-0.132-0.309l1.753-0.727c0.038 0.105 0.082 0.208 0.132 0.309 0.154 0.441 0.309 0.915 0.43 1.356 0.127 0.448 0.223 0.905 0.287 1.367l-2.436 0.474c0 0.242 0.055 0.463 0.088 0.716 0.017 0.231 0.017 0.463 0 0.694h0.628v-0.408c0-0.254 0-0.474-0.066-0.727 0.595-0.088 1.223-0.154 1.841-0.221 0 0.099 0 0.221 0 0.353 0.038 0.219 0.060 0.44 0.066 0.661 0.017 0.305 0.017 0.61 0 0.915v1.047h-2.568v1.631h0.783v-1.268h1.786v2.877h-2.568v1.609h0.783v-1.179h1.786v2.877h-4.067c0 0.055-0.066 0.088-0.099 0.154-0.154 0.181-0.332 0.34-0.529 0.474-0.071 0.137-0.112 0.287-0.121 0.441-0.006 0.228 0.074 0.449 0.226 0.619s0.363 0.276 0.59 0.295h1.102c0.191 0.001 0.381 0.041 0.557 0.116s0.335 0.185 0.469 0.322 0.238 0.3 0.308 0.478c0.070 0.178 0.104 0.369 0.099 0.56 0.003 0.28-0.074 0.555-0.22 0.794h1.819c0.292 0 0.573 0.116 0.779 0.323s0.323 0.487 0.323 0.779v3.759h-0.562v-2.656h-1.62v0.827h1.102v1.83h-2.723v-2.656h-1.62v0.827h1.102v1.83h-2.756v-2.656h-1.565v0.827h1.102v1.83h-2.756v-2.656h-1.587v0.827h1.102v1.83h-2.756v-2.656h-1.587v0.827h1.102v1.83h-2.756v-2.656h-1.532v0.827h1.102v1.83h-2.756v-2.656h-1.587v0.827h1.102v1.83h-2.756v-3.759c0-0.292 0.116-0.573 0.323-0.779s0.487-0.323 0.779-0.323h1.367c-0.107-0.185-0.176-0.39-0.202-0.602s-0.010-0.427 0.048-0.633c0.072-0.23 0.188-0.443 0.342-0.628 0.235-0.2 0.515-0.34 0.816-0.408 0.187-0.016 0.375-0.016 0.562 0h0.86c0.224-0.027 0.431-0.135 0.581-0.303s0.234-0.386 0.235-0.612c0.007-0.158-0.039-0.313-0.132-0.441-0.205-0.136-0.384-0.308-0.529-0.507v-0.066c-0.177-0.235-0.312-0.5-0.397-0.783-0.075-0.288-0.12-0.584-0.132-0.882 0.005-0.424 0.091-0.843 0.254-1.235 0.187-0.372 0.429-0.713 0.716-1.014 0 0 0 0 0.066-0.055 0.276-0.253 0.595-0.474 0.904-0.727 1.589-1.062 2.701-2.704 3.097-4.574v-0.066h0.055c0.133-0.059 0.259-0.133 0.375-0.22 0.395-0.302 0.7-0.706 0.882-1.168 0.108-0.283 0.171-0.58 0.187-0.882h-0.165c0.001 0.279-0.052 0.556-0.154 0.816-0.124 0.316-0.303 0.607-0.529 0.86-0.151 0.146-0.317 0.276-0.496 0.386-0.27 0.13-0.555 0.226-0.849 0.287-0.289 0.044-0.582 0.044-0.871 0-0.248-0.022-0.49-0.085-0.716-0.187-0.213-0.058-0.414-0.151-0.595-0.276-0.77 0.226-1.457 0.675-1.973 1.29-0.55 0.618-0.907 1.385-1.025 2.205v0.165l-1.841-0.253-1.753-2.436 4.189-7.639 2.436-1.444 0.783-4.795h0.121c0.497 0.023 0.967 0.236 1.312 0.595 0.362 0.355 0.595 0.82 0.661 1.323l0.408 1.642c0.276 0.066 0.65 0.099 0.904 0.154l0.121-0.628h-0.066c-0.225-0.057-0.453-0.098-0.683-0.121-0.088 0-0.187 0-0.309-0.066 0.088-0.628 0.187-1.268 0.276-1.896 0.32 0 0.628 0.099 0.937 0.132s0.474 0.121 0.727 0.154c0.43 0.121 0.871 0.287 1.312 0.441-0.287 0.816-0.562 1.609-0.816 2.425l-0.187 0.033zM9.303 4.795c-0.43-1.797-0.496-3.604-1.466-3.913l-0.463 3.913c0.64-0.084 1.289-0.084 1.929 0zM18.121 21.99h3.186v-1.642h-0.595v1.102h-1.973v-2.833h2.568v-1.609h-0.595v1.102h-1.973v-2.822h2.502c0.017-0.117 0.017-0.236 0-0.353 0-0.32 0-0.628 0-0.948-0.018-0.084-0.018-0.17 0-0.254l-0.595 0.099v0.287c0 0 0 0.088 0 0.121v0.794h-1.874v-0.463c0.017-0.275 0.017-0.551 0-0.827-0.030-0.297-0.082-0.592-0.154-0.882l-0.055-0.408 2.469-0.507c-0.071-0.205-0.126-0.415-0.165-0.628-0.099-0.32-0.187-0.628-0.32-0.948l-0.562 0.22c0.007 0.016 0.011 0.033 0.011 0.050s-0.004 0.034-0.011 0.050c0 0 0 0 0 0.055 0.088 0.227 0.162 0.459 0.22 0.694 0 0.099 0.055 0.187 0.088 0.32-0.628 0.154-1.212 0.342-1.841 0.54l-0.121-0.452c-0.071-0.265-0.156-0.526-0.254-0.783-0.099-0.254-0.187-0.474-0.287-0.694l-0.242-0.507 2.205-1.102c-0.099-0.154-0.154-0.32-0.254-0.441s-0.066-0.099-0.088-0.154c-0.16-0.299-0.341-0.586-0.54-0.86l-0.463 0.386c0 0 0 0.055 0.055 0.088 0.132 0.22 0.253 0.408 0.375 0.628s0.099 0.198 0.165 0.287c-0.54 0.287-1.102 0.661-1.631 0.981l-0.187-0.353c-0.154-0.242-0.342-0.496-0.496-0.716s-0.309-0.419-0.474-0.639l-0.298-0.397 1.874-1.708c-0.094-0.122-0.197-0.236-0.309-0.342l-0.375-0.386c-0.154-0.154-0.309-0.276-0.474-0.441l-0.397 0.474c0.121 0.099 0.242 0.22 0.342 0.32 0.195 0.16 0.373 0.342 0.529 0.54-0.441 0.441-0.871 0.915-1.312 1.389l-0.342-0.32c-0.185-0.194-0.384-0.375-0.595-0.54-0.254-0.187-0.474-0.375-0.716-0.529l-0.32-0.22 1.378-2.149c-0.266-0.196-0.55-0.366-0.849-0.507-0.187-0.12-0.382-0.226-0.584-0.32l-0.22 0.573c0 0 0 0 0.055 0l0.661 0.342c0.108 0.058 0.211 0.125 0.309 0.198l-0.937 1.697-0.408-0.22-0.683-0.375c-0.233-0.099-0.473-0.184-0.716-0.253l-0.474-0.187 0.783-2.436-0.628-0.187c-0.308-0.090-0.621-0.164-0.937-0.22l-0.088 0.628c0.375 0.066 0.75 0.165 1.102 0.254l-0.066 0.32-0.375 1.576-0.496-0.121c-0.187 0-0.474-0.099-0.716-0.132v0.408c2.21 0.348 4.226 1.469 5.688 3.163 1.53 1.738 2.403 3.957 2.469 6.272 0 0.386 0 0.827 0 1.201v5.842c-0.002 0.276-0.043 0.551-0.121 0.816h0.154zM4.089 26.884h2.656c0.238-0.026 0.458-0.138 0.618-0.316s0.248-0.409 0.248-0.648-0.088-0.47-0.248-0.648c-0.16-0.178-0.38-0.291-0.618-0.316h-2.623c-0.238 0.026-0.458 0.138-0.618 0.316s-0.249 0.409-0.249 0.648 0.088 0.47 0.249 0.648c0.16 0.178 0.38 0.291 0.618 0.316h-0.033zM9.898 26.884h0.066c0.111-0.004 0.22-0.031 0.321-0.077s0.191-0.113 0.266-0.195c0.075-0.082 0.133-0.178 0.17-0.283s0.054-0.216 0.048-0.327v-0.187c0.001-0.111-0.019-0.222-0.060-0.326s-0.103-0.198-0.18-0.278c-0.078-0.080-0.171-0.144-0.273-0.188s-0.213-0.067-0.324-0.069c-0.229 0-0.449 0.090-0.612 0.251s-0.256 0.38-0.259 0.609v0.187c-0.004 0.113 0.014 0.226 0.054 0.332s0.101 0.203 0.179 0.285c0.078 0.082 0.172 0.148 0.276 0.193s0.216 0.069 0.329 0.071zM1.775 16.027c0.529-4.729 4.784-6.283 2.502-9.534-1.102 2.304-2.778 5.114-4.067 7.418l1.565 2.116zM6.492 7.98c0.094-0.008 0.181-0.051 0.244-0.121s0.098-0.16 0.098-0.254c0.009-0.052 0.007-0.106-0.007-0.157s-0.039-0.099-0.073-0.14-0.077-0.073-0.125-0.096c-0.048-0.022-0.101-0.034-0.154-0.034s-0.106 0.012-0.154 0.034c-0.048 0.022-0.091 0.055-0.125 0.096s-0.059 0.088-0.073 0.14c-0.014 0.051-0.016 0.105-0.007 0.157 0 0.099 0.040 0.195 0.11 0.265s0.166 0.11 0.265 0.11zM20.965 30.51h-0.562v-1.422h-0.474v2.050h1.598v-0.628h-0.562zM14.527 30.51h-0.562v-1.422h-0.474v2.050h1.598v-0.628h-0.562zM17.746 30.51h-0.562v-1.422h-0.474v2.050h1.598v-0.628h-0.562zM8.090 30.51h-0.562v-1.422h-0.43v2.050h1.631v-0.628h-0.639zM11.309 30.51h-0.562v-1.422h-0.507v2.050h1.631v-0.628h-0.562zM1.653 30.51h-0.595v-1.422h-0.474v2.050h1.598v-0.628h-0.529zM4.872 30.51h-0.595v-1.422h-0.485v2.050h1.598v-0.628h-0.518z"></path>
</svg>
