<!-- Generated by IcoMoon.io -->
<svg version="1.1" xmlns="http://www.w3.org/2000/svg" width="29" height="32" viewBox="0 0 29 32">
<title>coinpuzzles</title>
<path fill="#ffffff" d="M14.305 0c0.704-0.003 1.402 0.135 2.051 0.407s1.239 0.67 1.731 1.173c1.005 1.019 1.566 2.393 1.563 3.825 0.006 0.503-0.067 1.004-0.216 1.484l0.062-0.066c0.495-0.5 1.084-0.896 1.734-1.167s1.346-0.409 2.049-0.409c0.697 0.001 1.387 0.141 2.029 0.411s1.224 0.666 1.712 1.164c1.004 1.019 1.566 2.394 1.563 3.825 0.002 1.421-0.56 2.785-1.563 3.791-0.706 0.71-1.593 1.212-2.565 1.451 0.974 0.218 1.864 0.712 2.565 1.422 1.004 1.019 1.566 2.394 1.563 3.825 0.011 1.059-0.295 2.097-0.877 2.982s-1.417 1.574-2.394 1.982c-0.978 0.407-2.055 0.513-3.093 0.305s-1.991-0.723-2.735-1.477l-0.062-0.067c0.147 0.492 0.22 1.004 0.216 1.517 0.005 0.706-0.13 1.406-0.396 2.060s-0.659 1.249-1.156 1.751-1.087 0.901-1.739 1.174c-0.651 0.273-1.35 0.415-2.056 0.418-1.406-0.017-2.749-0.584-3.741-1.58-0.679-0.703-1.162-1.573-1.398-2.522s-0.219-1.943 0.051-2.883c-0.024 0.057-0.069 0.103-0.125 0.129-0.487 0.499-1.069 0.895-1.712 1.166s-1.332 0.412-2.030 0.413c-1.419-0.008-2.777-0.577-3.778-1.584s-1.561-2.368-1.56-3.787c-0.002-1.431 0.559-2.805 1.563-3.825 0.706-0.703 1.594-1.196 2.565-1.422-0.969-0.247-1.854-0.748-2.565-1.451-1.003-1.007-1.565-2.37-1.563-3.791-0.002-1.431 0.559-2.805 1.563-3.825 0.495-0.5 1.084-0.896 1.734-1.167s1.346-0.409 2.049-0.409c0.697 0.001 1.387 0.141 2.029 0.411s1.224 0.666 1.712 1.164c0.050 0.034 0.092 0.078 0.125 0.129-0.151-0.501-0.224-1.023-0.216-1.546-0.003-1.431 0.558-2.805 1.563-3.825 0.488-0.499 1.069-0.895 1.712-1.166s1.332-0.412 2.030-0.413h0.004zM26.439 13.303l-5.849-5.845c0.275-0.237 0.58-0.438 0.906-0.599l5.525 5.462 0.062-0.033c-0.028 0.091-0.070 0.176-0.125 0.254-0.129 0.275-0.297 0.529-0.499 0.757l-0.021 0.004zM27.158 12.056l-5.379-5.338c0.082-0.027 0.165-0.048 0.249-0.062 0.516-0.161 1.057-0.226 1.596-0.191 0.535 0.041 1.055 0.191 1.53 0.441 0.491 0.247 0.928 0.591 1.285 1.010 0.332 0.431 0.595 0.91 0.782 1.422 0.163 0.538 0.216 1.104 0.154 1.663-0.026 0.365-0.099 0.726-0.216 1.073v-0.017zM19.152 10.443c1.467 1.422 2.91 2.877 4.377 4.327-0.197 0.033-0.398 0.033-0.594 0-0.543-0.039-1.072-0.188-1.556-0.437s-0.912-0.594-1.258-1.014c-0.349-0.419-0.615-0.902-0.782-1.422-0.156-0.468-0.219-0.962-0.187-1.455zM26.252 13.506l-5.882-5.828c-0.329 0.302-0.595 0.666-0.782 1.072l-0.029 0.033v0.029c-0.191 0.393-0.319 0.814-0.378 1.247l4.693 4.677c0.904-0.155 1.736-0.592 2.378-1.247v0.017zM19.152 7.678c-0.126 0.293-0.283 0.572-0.47 0.831-0.32 0.671-0.481 1.406-0.47 2.149 0.011 0.741 0.17 1.472 0.47 2.149 0.177 0.245 0.323 0.51 0.437 0.79l0.565 0.661c0.955 0.951 2.248 1.485 3.596 1.484 0.663-0 1.319-0.132 1.931-0.386s1.168-0.628 1.635-1.098c0.942-0.961 1.469-2.254 1.467-3.6 0.002-1.356-0.525-2.659-1.467-3.633-0.466-0.474-1.021-0.851-1.633-1.11s-1.269-0.395-1.934-0.399c-1.348 0.001-2.64 0.534-3.596 1.484-0.188 0.213-0.366 0.435-0.532 0.665v0.013zM18.15 9.129l-0.062 0.062c-0.705 0.712-1.592 1.215-2.565 1.455 0.975 0.216 1.866 0.709 2.565 1.422l0.062 0.062c-0.137-0.483-0.211-0.982-0.22-1.484 0.008-0.513 0.082-1.023 0.22-1.517zM19.434 14.375c0.151 0.49 0.224 1.001 0.216 1.513 0.006 0.503-0.067 1.004-0.216 1.484l0.062-0.062c0.705-0.705 1.594-1.198 2.565-1.422-0.97-0.245-1.855-0.746-2.565-1.451l-0.062-0.062zM18.902 13.71c-0.169-0.239-0.317-0.492-0.441-0.757-0.187-0.254-0.374-0.474-0.561-0.698-0.941-0.916-2.192-1.445-3.504-1.484h-0.154c-0.664 0.008-1.32 0.146-1.93 0.408s-1.163 0.641-1.626 1.116c-0.463 0.475-0.828 1.037-1.074 1.654s-0.367 1.276-0.358 1.94c-0.012 0.876 0.215 1.738 0.657 2.494l0.033 0.091c0.207 0.376 0.471 0.718 0.782 1.014 0.465 0.48 1.022 0.861 1.637 1.121s1.276 0.395 1.944 0.395 1.329-0.134 1.944-0.395c0.615-0.26 1.172-0.642 1.637-1.121 0.187-0.191 0.374-0.445 0.561-0.665 0.116-0.279 0.264-0.544 0.441-0.79 0.316-0.672 0.475-1.407 0.466-2.149 0.009-0.752-0.15-1.496-0.466-2.178l0.013 0.004zM18.433 8.339c0.138-0.274 0.295-0.538 0.47-0.79 0.313-0.672 0.471-1.404 0.466-2.145 0.002-1.356-0.525-2.659-1.467-3.633-0.47-0.47-1.029-0.844-1.643-1.098s-1.273-0.386-1.938-0.386c-0.665 0-1.324 0.131-1.938 0.386s-1.173 0.628-1.643 1.098c-0.944 0.974-1.472 2.277-1.472 3.633-0.004 0.86 0.212 1.708 0.628 2.461l0.029 0.033 0.033 0.096c0.225 0.363 0.487 0.701 0.782 1.010 0.457 0.466 1.002 0.838 1.604 1.092s1.247 0.388 1.901 0.392h0.154c0.653-0.004 1.299-0.137 1.901-0.392s1.146-0.626 1.604-1.092c0.201-0.202 0.379-0.425 0.532-0.665zM8.485 13.299l-5.878-5.845h0.029c0.276-0.238 0.582-0.439 0.91-0.599l5.504 5.496 0.062-0.062c-0.033 0.096-0.096 0.158-0.125 0.254-0.131 0.275-0.3 0.53-0.503 0.757zM9.204 12.051l-5.379-5.321c0.062-0.033 0.158-0.033 0.22-0.062 0.526-0.159 1.077-0.224 1.625-0.191 0.535 0.045 1.056 0.195 1.534 0.441 0.485 0.241 0.911 0.586 1.247 1.010 0.353 0.417 0.619 0.9 0.782 1.422 0.189 0.533 0.253 1.102 0.187 1.663-0.028 0.365-0.102 0.726-0.22 1.073l0.004-0.033zM1.197 10.438l4.382 4.327c-0.197 0.033-0.398 0.033-0.594 0-0.546-0.037-1.078-0.187-1.563-0.441-0.482-0.246-0.906-0.59-1.247-1.010-0.351-0.418-0.616-0.901-0.782-1.422-0.155-0.469-0.22-0.962-0.191-1.455h-0.004zM8.314 13.519l-5.895-5.841c-0.329 0.302-0.595 0.667-0.782 1.073l-0.033 0.033v0.029c-0.188 0.394-0.314 0.815-0.374 1.247l4.689 4.677c0.904-0.155 1.736-0.592 2.378-1.247l0.017 0.029zM6.531 15.888c0.974 0.217 1.864 0.711 2.565 1.422l0.125 0.129c-0.152-0.503-0.225-1.026-0.216-1.551-0.008-0.534 0.065-1.067 0.216-1.58-0.033 0.051-0.075 0.095-0.125 0.129-0.705 0.711-1.593 1.213-2.565 1.451zM10.443 12.226c0.031-0.060 0.073-0.114 0.125-0.158 0.699-0.712 1.59-1.206 2.565-1.422-0.973-0.24-1.86-0.743-2.565-1.455-0.050-0.032-0.093-0.075-0.125-0.125 0.151 0.513 0.224 1.045 0.216 1.58 0.006 0.534-0.067 1.067-0.216 1.58zM9.752 8.152l-0.062-0.129c-0.224-0.363-0.486-0.702-0.782-1.010-0.468-0.47-1.023-0.843-1.635-1.097s-1.268-0.386-1.931-0.387c-1.347 0.003-2.639 0.536-3.596 1.484-0.943 0.974-1.469 2.278-1.467 3.633-0.006 0.668 0.121 1.33 0.373 1.948s0.624 1.18 1.096 1.653 1.032 0.848 1.649 1.102c0.617 0.255 1.279 0.384 1.946 0.381 0.663 0 1.32-0.131 1.932-0.385s1.168-0.628 1.635-1.099c0.943-0.961 1.471-2.254 1.472-3.6 0.009-0.872-0.208-1.731-0.628-2.494zM8.505 23.82l-5.87-5.832v-0.033c0.283-0.228 0.588-0.429 0.91-0.599l5.504 5.496 0.062-0.062c-0.033 0.096-0.096 0.187-0.125 0.254-0.138 0.281-0.307 0.546-0.503 0.79l0.021-0.012zM9.225 22.573l-5.4-5.325c0.062-0.033 0.158-0.062 0.22-0.096 0.527-0.158 1.077-0.221 1.625-0.187 0.538 0.053 1.060 0.214 1.534 0.474 0.492 0.245 0.928 0.589 1.28 1.010 0.347 0.416 0.603 0.901 0.752 1.422 0.187 0.514 0.251 1.065 0.187 1.609-0.027 0.376-0.101 0.748-0.22 1.106l0.021-0.013zM1.218 20.931c1.438 1.455 2.91 2.91 4.382 4.361h-0.611c-0.545-0.065-1.074-0.225-1.563-0.474-0.971-0.512-1.701-1.386-2.033-2.432-0.157-0.468-0.222-0.962-0.191-1.455h0.017zM8.314 24.007l-5.878-5.845c-0.322 0.31-0.587 0.674-0.782 1.077l-0.033 0.029v0.033c-0.19 0.411-0.316 0.848-0.374 1.297l4.689 4.673c0.458-0.080 0.9-0.228 1.314-0.441 0.394-0.222 0.753-0.503 1.064-0.831v0.008zM10.443 22.714c0.030-0.061 0.072-0.115 0.125-0.158 0.699-0.712 1.59-1.206 2.565-1.422-0.982-0.215-1.876-0.723-2.565-1.455-0.028-0.011-0.053-0.028-0.075-0.050s-0.038-0.047-0.050-0.075c0.288 1.033 0.288 2.126 0 3.159zM9.752 18.607l-0.029-0.033-0.033-0.029c-0.206-0.377-0.47-0.719-0.782-1.014-0.462-0.479-1.016-0.86-1.629-1.12s-1.272-0.394-1.938-0.393c-0.67-0-1.333 0.134-1.951 0.393s-1.177 0.641-1.645 1.12c-0.941 0.963-1.467 2.256-1.467 3.602s0.527 2.639 1.467 3.602c0.953 0.958 2.245 1.503 3.596 1.517 1.345-0.018 2.628-0.565 3.571-1.523s1.471-2.25 1.467-3.594c0.005-0.882-0.211-1.751-0.628-2.527zM17.51 29.062l-5.878-5.845 0.029-0.029c0.274-0.231 0.579-0.423 0.906-0.569l5.508 5.462 0.062-0.062c-0.033 0.096-0.096 0.191-0.129 0.287-0.154 0.249-0.312 0.503-0.499 0.757zM18.2 27.815l-5.35-5.342 0.22-0.091c0.516-0.155 1.054-0.22 1.592-0.191 0.549 0.051 1.082 0.213 1.567 0.474 0.48 0.248 0.905 0.592 1.247 1.010 0.366 0.407 0.634 0.894 0.782 1.422 0.17 0.52 0.234 1.068 0.187 1.613-0.026 0.379-0.11 0.752-0.249 1.106h0.004zM10.193 26.173c1.467 1.451 2.939 2.91 4.377 4.357h-0.595c-0.538-0.054-1.059-0.215-1.534-0.474-0.485-0.241-0.911-0.586-1.247-1.010-0.366-0.407-0.634-0.894-0.781-1.422-0.151-0.468-0.225-0.959-0.216-1.451h-0.004zM17.323 29.237l-5.895-5.845c-0.316 0.315-0.581 0.677-0.786 1.073l-0.029 0.062c-0.205 0.405-0.332 0.845-0.374 1.297l4.689 4.677c0.458-0.082 0.9-0.232 1.314-0.445 0.395-0.222 0.753-0.502 1.064-0.831l0.017 0.012zM18.919 24.182c-0.177-0.235-0.325-0.49-0.441-0.761-0.171-0.233-0.359-0.454-0.561-0.661-0.465-0.48-1.022-0.861-1.637-1.121s-1.276-0.395-1.944-0.395c-0.668 0-1.329 0.134-1.944 0.395s-1.172 0.642-1.637 1.121c-0.303 0.314-0.565 0.666-0.777 1.048l-0.033 0.029c-0.427 0.774-0.653 1.643-0.657 2.527-0.006 1.348 0.523 2.642 1.472 3.6 0.465 0.48 1.022 0.861 1.637 1.121s1.276 0.395 1.944 0.395 1.329-0.134 1.945-0.395c0.615-0.26 1.172-0.642 1.637-1.121 0.947-0.958 1.475-2.253 1.467-3.6 0.006-0.751-0.153-1.495-0.466-2.178l-0.004-0.004zM18.166 22.602c-0.294-0.979-0.294-2.022 0-3.001l-0.062 0.062c-0.689 0.732-1.583 1.239-2.565 1.455 0.975 0.216 1.866 0.709 2.565 1.422l0.062 0.062zM18.698 23.263c0.174 0.253 0.331 0.517 0.47 0.79 0.151 0.241 0.33 0.464 0.532 0.665 0.952 0.959 2.244 1.504 3.596 1.517 0.666 0 1.325-0.134 1.938-0.395s1.167-0.643 1.629-1.123c0.941-0.963 1.467-2.256 1.467-3.602s-0.527-2.639-1.467-3.602c-0.463-0.479-1.017-0.859-1.63-1.119s-1.272-0.394-1.937-0.394c-0.67-0.001-1.334 0.133-1.951 0.392s-1.177 0.641-1.645 1.121c-0.202 0.201-0.381 0.424-0.532 0.665-0.138 0.263-0.295 0.516-0.47 0.757-0.303 0.688-0.463 1.431-0.47 2.182 0.007 0.74 0.167 1.47 0.47 2.145zM26.439 23.808l-5.849-5.82v-0.033c0.283-0.227 0.586-0.428 0.906-0.599l5.525 5.483 0.062-0.062c-0.022 0.093-0.064 0.179-0.125 0.254-0.137 0.281-0.304 0.546-0.499 0.79l-0.021-0.013zM27.158 22.561l-5.379-5.338 0.249-0.096c0.516-0.16 1.057-0.223 1.596-0.187 0.538 0.049 1.059 0.211 1.53 0.474 0.493 0.245 0.931 0.589 1.285 1.010 0.345 0.422 0.61 0.904 0.782 1.422 0.162 0.52 0.214 1.068 0.154 1.609-0.025 0.376-0.098 0.748-0.216 1.106zM19.152 20.918c1.467 1.455 2.939 2.91 4.377 4.361h-0.594c-0.548-0.051-1.079-0.212-1.563-0.474-0.479-0.25-0.904-0.593-1.247-1.010-0.356-0.415-0.622-0.899-0.782-1.422-0.158-0.468-0.221-0.962-0.187-1.455h-0.004zM26.252 23.982l-5.882-5.82c-0.312 0.319-0.575 0.682-0.782 1.077l-0.029 0.029v0.033c-0.193 0.41-0.321 0.848-0.378 1.297l4.693 4.673c0.457-0.081 0.9-0.229 1.314-0.441 0.399-0.215 0.759-0.496 1.064-0.831v-0.017zM17.493 18.52l-5.878-5.82 0.029-0.029c0.283-0.229 0.586-0.431 0.906-0.603l5.508 5.5 0.062-0.067c-0.036 0.088-0.079 0.173-0.129 0.254-0.14 0.27-0.307 0.525-0.499 0.761v0.004zM18.183 17.318l-5.35-5.338c0.062-0.033 0.158-0.066 0.22-0.096 0.516-0.155 1.054-0.22 1.592-0.191 0.546 0.066 1.076 0.226 1.567 0.474 0.467 0.268 0.888 0.609 1.247 1.010 0.361 0.422 0.628 0.917 0.782 1.451 0.172 0.519 0.236 1.068 0.187 1.613-0.025 0.379-0.109 0.752-0.249 1.106l0.004-0.029zM10.177 15.676c1.463 1.48 2.939 2.897 4.373 4.39-0.199 0.004-0.397-0.006-0.594-0.029-0.536-0.046-1.057-0.197-1.534-0.445-0.486-0.239-0.912-0.584-1.247-1.010-0.361-0.413-0.628-0.899-0.782-1.426-0.149-0.469-0.222-0.959-0.216-1.451v-0.029zM17.306 18.74l-5.878-5.845c-0.322 0.309-0.588 0.672-0.786 1.072l-0.029 0.033v0.033c-0.205 0.403-0.332 0.842-0.374 1.293l4.689 4.643c0.916-0.119 1.759-0.562 2.378-1.247v0.017zM17.493 8.031l-5.878-5.845h0.025c0.274-0.239 0.579-0.44 0.906-0.599l5.508 5.496 0.062-0.062c-0.033 0.091-0.096 0.158-0.129 0.249-0.139 0.271-0.306 0.526-0.499 0.761h0.004zM18.183 6.784l-5.35-5.3c0.062-0.029 0.158-0.029 0.22-0.062 0.516-0.156 1.055-0.219 1.592-0.187 0.818 0.066 1.597 0.375 2.238 0.887s1.115 1.203 1.362 1.986c0.17 0.53 0.234 1.088 0.187 1.642-0.025 0.369-0.109 0.731-0.249 1.073v-0.037zM10.177 5.176c1.467 1.422 2.939 2.873 4.377 4.327-0.197 0.033-0.398 0.033-0.595 0-0.535-0.046-1.056-0.196-1.534-0.441-0.485-0.242-0.911-0.588-1.247-1.014-0.361-0.41-0.628-0.894-0.781-1.418-0.147-0.471-0.22-0.962-0.216-1.455h-0.004zM17.306 8.239l-5.878-5.845c-0.323 0.31-0.589 0.674-0.786 1.077l-0.029 0.029v0.033c-0.203 0.388-0.33 0.811-0.374 1.247l4.689 4.673c0.461-0.065 0.906-0.215 1.314-0.441 0.399-0.198 0.759-0.465 1.064-0.79v0.017z"></path>
</svg>
