<svg width="85" height="95" viewBox="0 0 85 95" fill="none" xmlns="http://www.w3.org/2000/svg">
<path fill-rule="evenodd" clip-rule="evenodd" d="M34.0636 94.9849H11.7836C8.75903 94.9453 5.87304 93.7105 3.75582 91.5502C1.63861 89.3899 0.462212 86.4796 0.483605 83.4549C0.474963 80.746 1.39633 78.1161 3.09365 76.0049L10.3536 67.1049V66.9849C10.4708 66.8792 10.5637 66.7495 10.6259 66.6044C10.688 66.4594 10.718 66.3026 10.7136 66.1449C10.7031 65.8385 10.5929 65.5438 10.3998 65.3056C10.2067 65.0674 9.94126 64.8986 9.64364 64.8249C6.93978 64.3859 4.48198 62.9945 2.71413 60.9021C0.946292 58.8097 -0.0150759 56.1541 0.0036247 53.4149C0.00367628 51.8723 0.308478 50.345 0.900536 48.9207C1.49259 47.4963 2.36025 46.2029 3.45364 45.1149L36.5236 11.7449C37.2211 10.8476 38.1142 10.1216 39.135 9.62213C40.1558 9.12268 41.2772 8.86304 42.4136 8.86304C43.55 8.86304 44.6714 9.12268 45.6922 9.62213C46.713 10.1216 47.6062 10.8476 48.3036 11.7449L81.3836 45.1449C82.477 46.233 83.3447 47.5263 83.9367 48.9507C84.5288 50.3751 84.8336 51.9024 84.8336 53.4449C84.8503 56.1835 83.8882 58.838 82.1207 60.9301C80.3532 63.0221 77.8966 64.414 75.1936 64.8549C74.8952 64.9271 74.6288 65.0955 74.4354 65.334C74.2421 65.5725 74.1325 65.868 74.1236 66.1749C74.1304 66.4708 74.2131 66.76 74.3636 67.0149V67.1349L81.7336 76.0349C83.4381 78.1428 84.3635 80.774 84.3536 83.4849C84.3645 86.5019 83.1851 89.4016 81.0714 91.5546C78.9578 93.7075 76.0804 94.9401 73.0636 94.9849H34.0636Z" fill="#7DBD0D"/>
<path fill-rule="evenodd" clip-rule="evenodd" d="M34.0636 94.9849H11.7836C8.75899 94.9454 5.873 93.7106 3.75578 91.5503C1.63857 89.39 0.462174 86.4797 0.483567 83.455C0.474925 80.746 1.39629 78.1162 3.09361 76.0049L10.3536 67.1049V66.9849C10.4708 66.8793 10.5637 66.7495 10.6258 66.6045C10.688 66.4595 10.718 66.3027 10.7136 66.145C10.703 65.8385 10.5928 65.5439 10.3998 65.3057C10.2067 65.0675 9.94122 64.8987 9.6436 64.825C6.94935 64.3651 4.50428 62.9678 2.74034 60.88C0.9764 58.7922 0.00707223 56.1481 0.00358633 53.4149V53.2949C-0.0624449 55.9253 0.785087 58.4973 2.4019 60.5732C4.01872 62.6491 6.30489 64.1006 8.87138 64.6806C11.4379 65.2606 14.1261 64.9334 16.4784 63.7545C18.8308 62.5757 20.7021 60.6181 21.7736 58.2149C22.6497 60.2026 24.0811 61.8951 25.8959 63.0889C27.7106 64.2828 29.8314 64.9273 32.0036 64.9449C34.2266 64.9483 36.4021 64.3017 38.2623 63.0847C40.1225 61.8676 41.5863 60.1332 42.4736 58.0949C43.323 60.1157 44.7473 61.8425 46.5696 63.0609C48.3919 64.2793 50.5319 64.9356 52.724 64.9484C54.916 64.9612 57.0635 64.3299 58.8999 63.1328C60.7363 61.9358 62.1806 60.2257 63.0536 58.2149C64.1293 60.614 66.002 62.5671 68.3538 63.7427C70.7056 64.9183 73.3917 65.244 75.9563 64.6647C78.5209 64.0853 80.8061 62.6366 82.4242 60.5642C84.0423 58.4918 84.8935 55.9235 84.8336 53.2949V53.4149C84.8503 56.1536 83.8881 58.8081 82.1207 60.9001C80.3532 62.9922 77.8966 64.384 75.1936 64.825C74.8952 64.8972 74.6288 65.0655 74.4354 65.304C74.2421 65.5425 74.1325 65.838 74.1236 66.145C74.1304 66.4409 74.213 66.7301 74.3636 66.9849V67.1049L81.7336 76.0049C83.4381 78.1128 84.3634 80.7441 84.3536 83.455C84.3724 86.4772 83.1965 89.3845 81.082 91.5439C78.9675 93.7034 76.0856 94.9401 73.0636 94.9849H34.0636Z" fill="#68A303"/>
<path fill-rule="evenodd" clip-rule="evenodd" d="M42.5937 58.4549V58.5749H42.7137V58.7449C43.161 59.6187 43.7226 60.4291 44.3836 61.1548V61.2749H44.5036V61.3949H44.6136V61.5149H44.7336L44.8536 61.6349L45.2137 61.9949C46.1553 62.8894 47.2403 63.6195 48.4236 64.1548H48.6636L48.9037 64.2749L49.0236 64.3949L49.4936 64.5149L49.8536 64.6349L51.9936 64.9949H52.8236C55.0033 64.9761 57.1308 64.3256 58.9483 63.1222C60.7658 61.9188 62.1953 60.2142 63.0636 58.2148C63.9783 60.1987 65.4356 61.8833 67.267 63.0742C69.0984 64.265 71.2293 64.9136 73.4136 64.9449C73.8531 64.9437 74.2917 64.9838 74.7236 65.0649C74.5418 65.1801 74.3923 65.3397 74.2891 65.5286C74.1859 65.7175 74.1324 65.9296 74.1336 66.1449C74.1405 66.4408 74.2231 66.73 74.3736 66.9849V67.1049L81.7436 76.0049C81.8636 76.1249 82.1037 76.4849 82.4637 77.0049C83.7145 78.9375 84.3747 81.1928 84.3636 83.4949C84.3986 85.3166 83.9866 87.1192 83.1636 88.7449C59.9636 90.4349 42.0037 76.8548 42.5937 58.3448V58.4549Z" fill="#609603"/>
<path fill-rule="evenodd" clip-rule="evenodd" d="M1.79356 88.855C0.925106 87.188 0.475499 85.3347 0.483566 83.455C0.474924 80.7461 1.39629 78.1163 3.09361 76.005L7.73357 70.355C9.37886 71.1337 10.7745 72.3556 11.7637 73.8836C12.7529 75.4116 13.2966 77.1851 13.3336 79.005C13.3336 84.535 8.57358 89.005 2.74358 89.005C2.42198 89.033 2.0981 88.9921 1.79356 88.885V88.855Z" fill="#77B50D"/>
<path d="M66.0636 29.015C65.9548 29.1948 65.9123 29.4071 65.9436 29.6149V32.265C65.9467 47.9208 59.8486 62.9616 48.9436 74.1949C43.5392 79.6783 37.111 84.0476 30.0236 87.0549C23.0211 90.0109 15.4944 91.5245 7.89362 91.5049C6.35362 91.5049 5.16359 91.5049 3.61359 91.3849C3.44443 91.367 3.27441 91.4095 3.13361 91.5049C2.90361 91.7449 2.78357 91.8649 2.78357 92.1049C2.79214 92.3248 2.87302 92.5357 3.01361 92.705C3.06983 92.8152 3.15587 92.9074 3.26196 92.971C3.36805 93.0347 3.48989 93.0672 3.61359 93.0649C5.04359 93.0649 6.35362 93.1849 7.89362 93.1849C15.7326 93.17 23.4924 91.6174 30.7336 88.6149C45.4103 82.2549 57.0222 70.4134 63.0936 55.6149C66.0582 48.1996 67.5952 40.2909 67.6236 32.3049C67.6236 31.3049 67.5036 30.4949 67.5036 29.5349C67.5021 29.442 67.4798 29.3507 67.4382 29.2676C67.3967 29.1846 67.337 29.1119 67.2636 29.0549C67.1436 28.8149 66.9036 28.8149 66.6636 28.8149C66.4236 28.8149 66.3136 28.9349 66.0736 29.0549L66.0636 29.015Z" fill="#FEFEFE"/>
<path fill-rule="evenodd" clip-rule="evenodd" d="M48.9036 78.0448C49.6835 78.0647 50.4513 77.8508 51.1087 77.4308C51.766 77.0107 52.2826 76.4036 52.5922 75.6876C52.9017 74.9716 52.99 74.1793 52.8457 73.4127C52.7013 72.6461 52.3311 71.9402 51.7824 71.3857C51.2337 70.8313 50.5317 70.4536 49.7666 70.3013C49.0016 70.149 48.2084 70.229 47.4892 70.5311C46.77 70.8331 46.1576 71.3434 45.7307 71.9963C45.3038 72.6492 45.0819 73.4148 45.0936 74.1948C45.0936 75.209 45.4937 76.1823 46.207 76.9031C46.9204 77.624 47.8895 78.0343 48.9036 78.0448Z" fill="#FFC600"/>
<path fill-rule="evenodd" clip-rule="evenodd" d="M34.3836 90.4248C35.4112 90.3759 36.3804 89.933 37.09 89.1881C37.7995 88.4432 38.1948 87.4536 38.1936 86.4248C38.1432 85.4337 37.714 84.4999 36.9947 83.8163C36.2754 83.1327 35.321 82.7515 34.3286 82.7515C33.3363 82.7515 32.3818 83.1327 31.6625 83.8163C30.9432 84.4999 30.5141 85.4337 30.4636 86.4248C30.4634 87.472 30.8738 88.4775 31.6068 89.2253C32.3397 89.9732 33.3367 90.4039 34.3836 90.4248Z" fill="#FC3737"/>
<path fill-rule="evenodd" clip-rule="evenodd" d="M15.8236 94.5048C16.3276 94.5089 16.8273 94.4121 17.2934 94.2202C17.7594 94.0283 18.1824 93.7451 18.5374 93.3873C18.8924 93.0295 19.1723 92.6043 19.3605 92.1368C19.5488 91.6692 19.6416 91.1688 19.6336 90.6648C19.6601 90.1487 19.5812 89.6326 19.402 89.1479C19.2227 88.6633 18.9467 88.2202 18.5908 87.8455C18.2349 87.4709 17.8065 87.1725 17.3316 86.9687C16.8567 86.7648 16.3454 86.6597 15.8286 86.6597C15.3118 86.6597 14.8005 86.7648 14.3256 86.9687C13.8508 87.1725 13.4223 87.4709 13.0664 87.8455C12.7105 88.2202 12.4345 88.6633 12.2552 89.1479C12.0759 89.6326 11.9972 90.1487 12.0236 90.6648C12.0143 91.1683 12.1058 91.6686 12.293 92.136C12.4801 92.6035 12.759 93.0288 13.1132 93.3867C13.4674 93.7447 13.8898 94.028 14.3553 94.22C14.8208 94.4121 15.3201 94.5089 15.8236 94.5048Z" fill="white"/>
<path fill-rule="evenodd" clip-rule="evenodd" d="M10.1136 38.3951L36.5236 11.745C37.2073 10.8477 38.0893 10.1207 39.1007 9.62108C40.1121 9.12144 41.2255 8.86269 42.3536 8.86504C43.7385 8.85274 45.0994 9.22676 46.2836 9.94506C46.0436 16.3151 35.2236 39.1451 15.9436 39.1451C13.9774 39.1566 12.0179 38.9145 10.1136 38.425V38.3951Z" fill="#8DD117"/>
<path d="M59.7236 23.3749C57.05 26.9919 53.9773 30.2961 50.5636 33.2249C47.1337 36.127 43.3826 38.6267 39.3836 40.6749C35.4402 42.7404 31.2403 44.2738 26.8936 45.2349C22.5743 46.3141 18.1356 46.8416 13.6836 46.8049H10.8336C9.88361 46.6849 8.92357 46.6849 7.97357 46.5649C7.02357 46.4449 6.07359 46.3249 5.24359 46.2049C4.41359 46.0849 3.3336 45.8449 2.3836 45.7249C2.1436 45.7249 1.90358 45.7248 1.79358 45.8448C1.68358 45.9648 1.43359 46.0849 1.43359 46.3249V46.4449C1.41563 46.614 1.45814 46.7841 1.55359 46.9249C1.59643 47.0188 1.66169 47.1007 1.74365 47.1635C1.8256 47.2263 1.92178 47.2679 2.02362 47.2849C2.97362 47.5249 3.9336 47.6449 4.8836 47.8849L7.8836 48.2449C8.8836 48.3649 9.7936 48.3649 10.8836 48.4849H13.7336C18.2969 48.4607 22.8439 47.9376 27.2936 46.9249C31.7225 45.8226 36.008 44.2084 40.0636 42.1149C44.1884 40.059 48.0275 37.4738 51.4836 34.4249C55.0669 31.4545 58.2829 28.0673 61.0636 24.3349C61.1724 24.1551 61.2149 23.9427 61.1836 23.7349C61.1866 23.6097 61.1544 23.4862 61.0908 23.3784C61.0272 23.2706 60.9346 23.1828 60.8236 23.1249C60.7136 23.0049 60.4736 23.0049 60.2336 23.0049C60.1292 23.0221 60.0308 23.0649 59.947 23.1295C59.8633 23.194 59.7968 23.2783 59.7536 23.3749H59.7236Z" fill="#FEFEFE"/>
<path fill-rule="evenodd" clip-rule="evenodd" d="M19.1536 51.3649C19.658 51.3703 20.1583 51.2745 20.625 51.0831C21.0917 50.8916 21.5152 50.6085 21.8705 50.2504C22.2258 49.8924 22.5055 49.4666 22.6933 48.9985C22.8811 48.5303 22.973 48.0292 22.9636 47.5249C22.9901 47.0088 22.9113 46.4927 22.732 46.0081C22.5527 45.5234 22.2767 45.0802 21.9208 44.7056C21.5648 44.3309 21.1364 44.0326 20.6616 43.8287C20.1867 43.6249 19.6753 43.5198 19.1586 43.5198C18.6418 43.5198 18.1304 43.6249 17.6556 43.8287C17.1807 44.0326 16.7523 44.3309 16.3964 44.7056C16.0405 45.0802 15.7645 45.5234 15.5852 46.0081C15.4059 46.4927 15.3271 47.0088 15.3536 47.5249C15.3442 48.0284 15.4358 48.5286 15.623 48.9961C15.8101 49.4636 16.089 49.8889 16.4432 50.2468C16.7974 50.6048 17.2198 50.888 17.6853 51.0801C18.1508 51.2721 18.6501 51.369 19.1536 51.3649Z" fill="white"/>
<path fill-rule="evenodd" clip-rule="evenodd" d="M36.8836 46.685C37.8969 46.6719 38.8644 46.2608 39.5773 45.5405C40.2901 44.8202 40.6911 43.8484 40.6936 42.835C40.7203 42.3109 40.6401 41.7869 40.4579 41.2947C40.2757 40.8026 39.9953 40.3527 39.6338 39.9723C39.2723 39.5919 38.8372 39.289 38.3549 39.082C37.8727 38.8751 37.3534 38.7683 36.8286 38.7683C36.3038 38.7683 35.7845 38.8751 35.3023 39.082C34.8201 39.289 34.385 39.5919 34.0234 39.9723C33.6619 40.3527 33.3815 40.8026 33.1993 41.2947C33.0171 41.7869 32.937 42.3109 32.9636 42.835C32.9675 43.3454 33.0721 43.85 33.2714 44.3199C33.4706 44.7898 33.7606 45.2157 34.1248 45.5734C34.4889 45.931 34.92 46.2133 35.3934 46.4041C35.8668 46.5948 36.3732 46.6903 36.8836 46.685Z" fill="#FC3737"/>
<path fill-rule="evenodd" clip-rule="evenodd" d="M53.6636 35.5049C54.6894 35.4535 55.6562 35.0095 56.3636 34.2649C57.071 33.5202 57.4649 32.532 57.4636 31.5049C57.4132 30.5138 56.9839 29.58 56.2646 28.8964C55.5453 28.2127 54.5909 27.8315 53.5986 27.8315C52.6062 27.8315 51.6519 28.2127 50.9326 28.8964C50.2133 29.58 49.784 30.5138 49.7336 31.5049C49.7334 32.5537 50.1452 33.5607 50.8803 34.3088C51.6154 35.057 52.6149 35.4865 53.6636 35.5049Z" fill="#FFC800"/>
<path fill-rule="evenodd" clip-rule="evenodd" d="M66.3936 48.0051C66.9043 48.0117 67.4113 47.9171 67.8853 47.7268C68.3593 47.5365 68.791 47.2543 69.1554 46.8964C69.5198 46.5385 69.8098 46.112 70.0085 45.6415C70.2073 45.171 70.311 44.6658 70.3136 44.155C70.3403 43.6309 70.2601 43.1069 70.0779 42.6148C69.8957 42.1227 69.6153 41.6727 69.2538 41.2924C68.8923 40.912 68.4571 40.6091 67.9749 40.4021C67.4927 40.1951 66.9734 40.0884 66.4486 40.0884C65.9238 40.0884 65.4045 40.1951 64.9223 40.4021C64.4401 40.6091 64.0049 40.912 63.6434 41.2924C63.2819 41.6727 63.0015 42.1227 62.8193 42.6148C62.6371 43.1069 62.5569 43.6309 62.5836 44.155C62.5836 45.1692 62.9837 46.1425 63.6971 46.8633C64.4105 47.5842 65.3795 47.9945 66.3936 48.0051Z" fill="#FC3737"/>
<path fill-rule="evenodd" clip-rule="evenodd" d="M60.0636 63.6248C61.0769 63.6117 62.0444 63.2006 62.7573 62.4803C63.4701 61.76 63.8711 60.7882 63.8736 59.7748C63.8736 58.7485 63.4659 57.7641 62.7401 57.0383C62.0143 56.3126 61.03 55.9048 60.0036 55.9048C58.9772 55.9048 57.9929 56.3126 57.2671 57.0383C56.5413 57.7641 56.1336 58.7485 56.1336 59.7748C56.1375 60.2861 56.2424 60.7915 56.4423 61.262C56.6421 61.7326 56.9331 62.159 57.2983 62.5168C57.6635 62.8746 58.0958 63.1566 58.5704 63.3467C59.0449 63.5369 59.5524 63.6314 60.0636 63.6248Z" fill="white"/>
<path d="M43.5436 0.744912L45.6836 5.55491L50.9236 6.15489C51.2617 6.21236 51.5679 6.3894 51.7863 6.65373C52.0047 6.91805 52.1209 7.25206 52.1136 7.59489C52.0299 7.95973 51.8659 8.30134 51.6336 8.59489L47.8336 11.9549L48.9037 17.1249C48.9626 17.473 48.884 17.8303 48.6843 18.1214C48.4846 18.4126 48.1796 18.6146 47.8336 18.6849C47.6675 18.7336 47.4932 18.748 47.3213 18.7274C47.1494 18.7068 46.9836 18.6515 46.8336 18.5649L42.3136 15.9249L37.7936 18.5649C37.6542 18.6468 37.4995 18.6995 37.3391 18.7196C37.1786 18.7397 37.0157 18.7269 36.8604 18.682C36.705 18.6371 36.5605 18.5609 36.4355 18.4583C36.3106 18.3556 36.2078 18.2286 36.1336 18.0849C36.0272 17.9436 35.951 17.7819 35.9097 17.6098C35.8684 17.4378 35.8629 17.2592 35.8936 17.0849L36.9637 11.9149L33.1537 8.43491C33.0218 8.32737 32.9135 8.19385 32.8354 8.04264C32.7574 7.89144 32.7113 7.72579 32.7 7.55601C32.6888 7.38623 32.7126 7.21595 32.77 7.05576C32.8274 6.89558 32.9171 6.74892 33.0336 6.62492C33.1331 6.49143 33.2591 6.37987 33.4036 6.29728C33.5481 6.21469 33.7081 6.16286 33.8736 6.14494L39.1036 5.5449L41.1036 0.734903C41.2644 0.420802 41.5418 0.182128 41.8763 0.0699857C42.2109 -0.0421569 42.5761 -0.0188296 42.8936 0.134927C43.1464 0.270723 43.3521 0.479886 43.4836 0.734903L43.5436 0.744912Z" fill="#FFC800"/>
</svg>
