<!-- Generated by IcoMoon.io -->
<svg version="1.1" xmlns="http://www.w3.org/2000/svg" width="29" height="32" viewBox="0 0 29 32">
<title>holidaypuzzl</title>
<path fill="#0c3e96" d="M11.54 31.601h-7.374c-0.696-0.010-1.376-0.204-1.973-0.562h0.595c0.529 0 1.102 0 1.631-0.066 0.114 0.189 0.276 0.345 0.47 0.451s0.412 0.16 0.632 0.155c0.279-0.006 0.548-0.102 0.768-0.272s0.38-0.408 0.455-0.676c1.251-0.239 2.474-0.608 3.648-1.102l0.187-0.066c0.139 0.244 0.355 0.434 0.615 0.541s0.547 0.123 0.817 0.047c0.27-0.076 0.507-0.24 0.673-0.467s0.251-0.502 0.242-0.782c0.002-0.185-0.032-0.368-0.099-0.54 1.135-0.677 2.195-1.471 3.163-2.37 0.157 0.068 0.326 0.101 0.496 0.099 0.339-0.006 0.663-0.144 0.902-0.385s0.374-0.566 0.377-0.905c-0.008-0.186-0.049-0.369-0.121-0.54 0.788-0.93 1.499-1.921 2.127-2.965 0.129 0.038 0.262 0.060 0.397 0.066 0.343-0.012 0.668-0.158 0.903-0.408s0.362-0.583 0.354-0.926c0.003-0.196-0.042-0.389-0.13-0.564s-0.218-0.325-0.377-0.439c0.099-0.198 0.165-0.386 0.253-0.573 0.31-0.792 0.572-1.601 0.783-2.425 0.331-0.020 0.643-0.165 0.87-0.407s0.354-0.561 0.353-0.893c-0.008-0.233-0.081-0.459-0.209-0.653s-0.308-0.35-0.519-0.449c0.14-0.993 0.214-1.995 0.221-2.998l4.596 4.64c0.498 0.501 0.849 1.128 1.016 1.814s0.143 1.404-0.070 2.078c-0.212 0.673-0.605 1.276-1.135 1.742s-1.178 0.778-1.873 0.903c-0.105 0.016-0.201 0.069-0.27 0.15s-0.106 0.184-0.105 0.291c0.003 0.102 0.034 0.201 0.088 0.287l2.436 2.965c0.579 0.687 0.892 1.559 0.882 2.458 0.009 1.006-0.38 1.974-1.082 2.695s-1.66 1.134-2.666 1.152h-12.951v-0.099zM1.477 30.444c-0.253-0.264-0.465-0.565-0.628-0.893 0.099 0 0.187 0 0.287 0 0.447 0.013 0.892-0.062 1.309-0.221s0.8-0.399 1.124-0.706c0.325-0.307 0.585-0.676 0.767-1.084s0.282-0.848 0.293-1.295c-0.009-0.602-0.182-1.19-0.5-1.701s-0.771-0.925-1.307-1.198l-1.565 1.896 2.436-2.965c0.062-0.083 0.097-0.183 0.099-0.287 0.003-0.102-0.030-0.201-0.092-0.281s-0.15-0.137-0.249-0.16c-0.897-0.159-1.709-0.63-2.292-1.33s-0.899-1.584-0.893-2.495c0.002-0.671 0.172-1.33 0.496-1.918l0.683 0.088c0.353 0.066 0.661 0.099 1.003 0.132l1.003 0.088h1.907c0.075 0.275 0.237 0.519 0.461 0.696s0.499 0.277 0.784 0.285c0.33-0.009 0.643-0.144 0.875-0.378s0.365-0.549 0.37-0.878c0.424-0.055 0.844-0.139 1.257-0.254 0.776-0.165 1.538-0.386 2.282-0.661 0.111 0.194 0.271 0.354 0.465 0.465s0.414 0.167 0.637 0.163c0.339-0.011 0.661-0.153 0.899-0.395s0.374-0.566 0.379-0.906c0.013-0.102 0.013-0.206 0-0.309 1.29-0.656 2.513-1.439 3.648-2.337 0.209 0.126 0.45 0.191 0.694 0.187 0.167-0.001 0.332-0.036 0.485-0.102s0.292-0.162 0.408-0.282 0.207-0.262 0.267-0.418c0.061-0.156 0.089-0.322 0.085-0.489 0.004-0.198-0.037-0.394-0.121-0.573 0.496-0.529 0.97-1.102 1.433-1.642l1.499 1.521v0.595c0.006 0.951-0.057 1.902-0.187 2.844-0.338 0.008-0.66 0.147-0.898 0.388s-0.374 0.563-0.38 0.902c-0.004 0.26 0.073 0.514 0.219 0.729s0.354 0.38 0.597 0.472c-0.22 0.794-0.474 1.576-0.75 2.337-0.099 0.154-0.154 0.342-0.253 0.507-0.066 0-0.154 0-0.254 0-0.34 0.003-0.665 0.14-0.905 0.382s-0.374 0.568-0.374 0.908c-0 0.182 0.036 0.363 0.106 0.531s0.173 0.321 0.302 0.45c-0.578 0.996-1.246 1.937-1.995 2.811-0.226-0.199-0.515-0.312-0.816-0.32-0.339 0.011-0.661 0.153-0.899 0.395s-0.374 0.566-0.379 0.906c-0.003 0.311 0.107 0.612 0.309 0.849-0.935 0.852-1.95 1.613-3.031 2.271-0.225-0.201-0.514-0.314-0.816-0.32-0.17-0-0.338 0.034-0.494 0.099s-0.298 0.162-0.417 0.283c-0.119 0.121-0.213 0.265-0.276 0.422s-0.094 0.326-0.091 0.496v0.121l-0.187 0.066c-1.107 0.481-2.259 0.85-3.439 1.102-0.058-0.306-0.228-0.58-0.476-0.768s-0.558-0.277-0.869-0.25-0.6 0.169-0.811 0.398c-0.212 0.229-0.331 0.528-0.334 0.84v0.165c-0.474 0-0.97 0-1.444 0s-0.871 0-1.312 0l-0.132 0.022zM1.102 15.354l0.287-0.287 10.967-11.078-8.752 8.818c0.645 0.164 1.307 0.249 1.973 0.254 4.806 0 8.024-4.299 9.336-7.319l0.882 0.496c0.048 0.036 0.104 0.061 0.163 0.073s0.12 0.009 0.179-0.006c0.054-0.013 0.104-0.036 0.149-0.069s0.082-0.073 0.111-0.121c0.029-0.047 0.048-0.099 0.056-0.154s0.006-0.11-0.007-0.164l-0.342-1.697 0.154-0.165 3.902 3.946c-0.42 0.566-0.876 1.104-1.367 1.609-0.227-0.17-0.499-0.27-0.783-0.287-0.343 0.003-0.671 0.141-0.913 0.385s-0.377 0.573-0.377 0.916c0.012 0.242 0.076 0.479 0.187 0.694-1.066 0.864-2.227 1.604-3.461 2.205-0.12-0.15-0.273-0.27-0.447-0.353s-0.364-0.124-0.556-0.121c-0.339 0.006-0.663 0.144-0.902 0.385s-0.374 0.566-0.377 0.905c0.003 0.055 0.003 0.11 0 0.165-0.716 0.254-1.466 0.474-2.205 0.661-0.375 0.099-0.805 0.154-1.212 0.22-0.102-0.253-0.284-0.466-0.518-0.607s-0.507-0.201-0.779-0.173c-0.271 0.029-0.526 0.145-0.726 0.331s-0.333 0.433-0.38 0.701c-0.305 0.017-0.61 0.017-0.915 0-0.319 0.017-0.639 0.017-0.959 0-0.324-0.004-0.648-0.026-0.97-0.066-0.342 0-0.661-0.066-0.97-0.121-0.149-0.007-0.296-0.029-0.441-0.066l0.011 0.088z"></path>
<path fill="#0c3e96" d="M11.54 31.734h-7.374c-0.789 0.001-1.559-0.242-2.204-0.694h0.474c0.523 0.265 1.1 0.405 1.686 0.408h0.783c0.162 0.088 0.344 0.133 0.529 0.132 0.185 0.007 0.369-0.038 0.529-0.132h18.518c0.48-0.003 0.956-0.101 1.398-0.288s0.843-0.461 1.179-0.804c0.336-0.343 0.601-0.75 0.779-1.196s0.266-0.923 0.259-1.404c0.007-0.864-0.289-1.703-0.838-2.37l-2.469-2.998c-0.035-0.037-0.058-0.083-0.066-0.132-0.016-0.061-0.016-0.126 0-0.187-0.006-0.068 0.002-0.137 0.025-0.202s0.060-0.124 0.107-0.173c0.082-0.114 0.204-0.192 0.342-0.22 0.868-0.131 1.655-0.583 2.204-1.268 0.442-0.518 0.732-1.149 0.837-1.823s0.021-1.363-0.242-1.991c-0.19-0.443-0.455-0.849-0.783-1.201-1.102-1.102-2.778-2.689-4.497-4.354v-0.606l4.718 4.773c0.711 0.759 1.105 1.76 1.102 2.8 0.007 0.948-0.325 1.866-0.937 2.59-0.598 0.726-1.441 1.209-2.37 1.356-0.031 0.005-0.061 0.016-0.088 0.033s-0.049 0.040-0.066 0.066c-0.032 0.027-0.058 0.061-0.075 0.099s-0.025 0.080-0.024 0.122c0 0 0 0.066 0 0.099s0 0 0.066 0.088l2.436 2.965c0.274 0.367 0.493 0.771 0.65 1.201 0.151 0.436 0.225 0.895 0.22 1.356 0.005 1.043-0.39 2.049-1.102 2.811-0.357 0.368-0.783 0.66-1.254 0.861s-0.978 0.305-1.49 0.307l-12.962-0.022zM1.29 30.444c-0.663-0.738-1.029-1.697-1.025-2.689 0.008-0.459 0.078-0.915 0.209-1.356 0.173-0.432 0.407-0.836 0.694-1.201l2.403-2.932c0 0 0-0.066 0-0.088 0.007-0.016 0.011-0.033 0.011-0.050s-0.004-0.034-0.011-0.050c-0.002-0.078-0.025-0.154-0.066-0.22-0.066 0-0.121-0.099-0.187-0.099-0.925-0.14-1.764-0.624-2.348-1.356-0.621-0.721-0.965-1.639-0.97-2.59 0.010-0.519 0.119-1.031 0.32-1.51 0.056-0.155 0.13-0.303 0.22-0.441l0.276 0.066c-0.095 0.152-0.18 0.31-0.254 0.474-0.186 0.447-0.28 0.927-0.276 1.411 0.002 0.878 0.31 1.728 0.871 2.403 0.56 0.672 1.342 1.122 2.205 1.268 0.133 0.039 0.251 0.116 0.342 0.22 0.075 0.111 0.117 0.241 0.121 0.375 0 0.066 0 0.121 0 0.187-0.021 0.049-0.051 0.094-0.088 0.132l-2.436 2.998c-0.289 0.316-0.504 0.693-0.628 1.102-0.15 0.402-0.225 0.828-0.22 1.257 0.011 0.985 0.406 1.926 1.102 2.623l0.066 0.066h-0.331zM0.948 15.277c0.105-0.122 0.22-0.236 0.342-0.342l10.934-11.078 0.22 0.187c-1.091 1.25-2.25 2.439-3.472 3.56-0.309 0.32-0.683 0.761-1.025 1.102-2.204 2.205-4.651 4.541-6.47 6.404l-0.22 0.22-0.309-0.055zM22.067 10.262c-0.562-0.573-1.102-1.102-1.72-1.708l0.287-0.375 1.433 1.455v0.628zM19.94 8.179c-1.345-1.298-2.608-2.678-3.781-4.133l0.187-0.187 3.913 3.946c-0.099 0.121-0.22 0.242-0.32 0.375z"></path>
<path fill="#0c3e96" d="M0.728 29.606c-0.306-0.573-0.465-1.213-0.463-1.863 0.008-0.459 0.078-0.915 0.209-1.356 0.173-0.432 0.407-0.836 0.694-1.201l1.62-1.951h0.099c0.556 0.295 1.026 0.727 1.367 1.257 0.354 0.52 0.543 1.135 0.54 1.764-0.003 0.456-0.103 0.906-0.293 1.32s-0.466 0.783-0.809 1.083c-0.704 0.653-1.63 1.015-2.59 1.014h-0.375v-0.066zM0.639 28.625c0.057 0.275 0.149 0.542 0.276 0.794h0.22c0.887 0.005 1.744-0.321 2.403-0.915 0.302-0.283 0.543-0.625 0.71-1.003s0.255-0.787 0.26-1.201c-0.002-0.56-0.157-1.109-0.448-1.587s-0.708-0.867-1.205-1.125l-1.466 1.797c-0.289 0.316-0.504 0.693-0.628 1.102-0.15 0.402-0.225 0.828-0.22 1.256-0.002 0.297 0.031 0.593 0.099 0.882z"></path>
<path fill="#0c3e96" d="M14.825 0.331l0.65 1.543 1.653 0.165c0.147 0.024 0.28 0.102 0.373 0.217s0.141 0.262 0.134 0.411c-0.002 0.078-0.024 0.154-0.066 0.22-0.034 0.066-0.088 0.12-0.154 0.154l-1.19 1.102 0.342 1.631c0.018 0.072 0.020 0.147 0.005 0.22s-0.047 0.141-0.093 0.199c-0.035 0.064-0.084 0.121-0.143 0.164s-0.127 0.074-0.199 0.089c-0.15 0.025-0.305 0.002-0.441-0.066l-1.411-0.827-1.433 0.827c-0.122 0.075-0.269 0.099-0.408 0.066-0.076-0.016-0.147-0.051-0.207-0.101s-0.106-0.114-0.135-0.186c-0.154-0.22-0.099-0.353 0-0.606l0.287-1.411-1.223-1.102c-0.090-0.122-0.154-0.26-0.187-0.408 0.012-0.148 0.065-0.289 0.154-0.408 0.065-0.068 0.144-0.12 0.232-0.152s0.182-0.045 0.275-0.035l1.499-0.165 0.683-1.543c0.065-0.134 0.178-0.239 0.318-0.292s0.294-0.051 0.432 0.006c0.065 0.025 0.119 0.072 0.154 0.132 0.053 0.043 0.098 0.095 0.132 0.154h-0.033zM15.255 2.039l-0.683-1.576c0 0 0-0.066-0.066-0.099l-0.088-0.066c-0.034-0.017-0.072-0.025-0.11-0.025s-0.076 0.009-0.11 0.025c-0.067 0.038-0.121 0.096-0.154 0.165l-0.75 1.664-1.786 0.198c-0.066 0-0.088 0-0.121 0-0.018 0-0.034 0.007-0.047 0.019s-0.019 0.029-0.019 0.047c-0.030 0.028-0.053 0.063-0.068 0.101s-0.022 0.079-0.020 0.12c-0.001 0.036 0.007 0.072 0.022 0.104s0.038 0.061 0.066 0.083c0.474 0.386 0.904 0.827 1.345 1.235l-0.375 1.797v0.099c0 0 0 0.066 0 0.088s0.121 0.132 0.187 0.132c0.034 0.017 0.072 0.025 0.11 0.025s0.076-0.009 0.11-0.025l1.554-0.915c0.54 0.287 1.036 0.595 1.565 0.882l0.099 0.066h0.121c0.066 0 0.154-0.066 0.187-0.132 0.016-0.035 0.024-0.072 0.024-0.11s-0.008-0.076-0.024-0.11l-0.375-1.797c0.43-0.408 0.871-0.816 1.345-1.201 0 0 0-0.066 0-0.088s0-0.066 0-0.132c0.005-0.039 0.001-0.079-0.010-0.117s-0.031-0.073-0.056-0.103c0-0.066-0.121-0.088-0.187-0.088l-1.808-0.198 0.121-0.066z"></path>
</svg>
