<!-- Generated by IcoMoon.io -->
<svg version="1.1" xmlns="http://www.w3.org/2000/svg" width="32" height="32" viewBox="0 0 32 32">
<title>logicproblems</title>
<path fill="#ffffff" d="M4.618 4.629c1.454-1.471 3.185-2.64 5.092-3.439 3.844-1.587 8.16-1.587 12.003 0 1.916 0.801 3.657 1.97 5.125 3.439 1.445 1.477 2.6 3.212 3.406 5.114 0.778 1.927 1.178 3.985 1.179 6.062-0.006 2.084-0.406 4.149-1.179 6.084-0.81 1.91-1.964 3.655-3.406 5.147-1.462 1.476-3.205 2.645-5.125 3.439-1.902 0.793-3.941 1.201-6.002 1.201s-4.1-0.408-6.002-1.201c-1.912-0.791-3.644-1.961-5.092-3.439-1.47-1.474-2.635-3.223-3.428-5.147-0.777-1.935-1.181-3.999-1.19-6.084 0.005-2.078 0.409-4.136 1.19-6.062 0.793-1.925 1.958-3.674 3.428-5.147v0.033zM15.718 0.926c3.678 0.039 7.213 1.433 9.928 3.915s4.419 5.879 4.786 9.539c0.367 3.66-0.628 7.327-2.796 10.299s-5.355 5.040-8.953 5.809l-0.121 0.253c0 0-0.066 0.066-0.099 0.066-0.455 0.090-0.915 0.153-1.378 0.187-0.453 0.056-0.91 0.078-1.367 0.066-0.711 0.007-1.422-0.037-2.127-0.132-0.698-0.107-1.387-0.265-2.061-0.474-0.023-0.005-0.044-0.016-0.061-0.032s-0.030-0.036-0.036-0.059-0.007-0.046-0.002-0.069c0.005-0.023 0.017-0.044 0.033-0.061l0.066-0.055c-3.407-1.047-6.328-3.276-8.237-6.286s-2.68-6.603-2.175-10.131 2.254-6.76 4.931-9.114c2.677-2.353 6.106-3.673 9.67-3.722zM9.81 1.455c-1.871 0.794-3.57 1.943-5.004 3.384-1.429 1.457-2.553 3.185-3.307 5.081-0.796 1.875-1.202 3.893-1.19 5.93-0.011 2.048 0.394 4.077 1.19 5.963 0.763 1.89 1.894 3.611 3.326 5.062s3.138 2.604 5.018 3.392c3.781 1.557 8.024 1.557 11.805 0 3.801-1.599 6.813-4.639 8.377-8.454 0.751-1.897 1.126-3.923 1.102-5.963 0.007-2.045-0.389-4.071-1.167-5.963s-1.92-3.611-3.364-5.060c-1.427-1.438-3.119-2.587-4.982-3.384-1.867-0.793-3.874-1.201-5.902-1.201s-4.036 0.409-5.903 1.201v0.011zM12.279 29.793l-0.474 0.474c0.599 0.16 1.206 0.289 1.819 0.386 0.694 0.097 1.394 0.148 2.094 0.154 0.463 0 0.904 0 1.345-0.066s0.871-0.088 1.279-0.187c0.121-0.254 0.242-0.54 0.375-0.816s0.187-0.507 0.276-0.794c-0.496 0.099-0.992 0.187-1.499 0.253-0.589 0.062-1.182 0.092-1.775 0.088-0.507 0-0.97 0-1.477-0.055l-1.334-0.187c-0.22 0.242-0.441 0.496-0.628 0.75zM14.12 27.181c-0.22 0.342-0.408 0.694-0.628 1.003 0.332 0.062 0.667 0.106 1.003 0.132 0.408 0 0.816 0 1.223 0 0.615 0 1.229-0.033 1.841-0.099 0.595-0.099 1.102-0.187 1.72-0.32 0.088-0.375 0.187-0.75 0.242-1.102 0.095-0.363 0.168-0.731 0.22-1.102l-1.345 0.187c-0.496 0-1.025 0.066-1.554 0.066-0.342 0-0.727 0-1.102 0l-0.992-0.088c-0.22 0.463-0.441 0.937-0.661 1.356l0.033-0.033zM15.652 23.422c-0.154 0.54-0.309 1.036-0.496 1.51 0.251 0.006 0.501 0.028 0.749 0.066 0.309 0 0.617 0 0.937 0 0.531 0.001 1.061-0.032 1.587-0.099 0.474 0 0.97-0.121 1.444-0.22 0-0.507 0.121-1.036 0.154-1.576s0-1.036 0.088-1.576c-0.339 0.062-0.681 0.103-1.025 0.121-0.375 0-0.783 0-1.19 0-0.323 0.016-0.647 0.016-0.97 0-0.28-0.002-0.56-0.020-0.838-0.055-0.132 0.628-0.287 1.224-0.441 1.797v0.033zM16.501 18.661c-0.066 0.716-0.165 1.389-0.254 2.050 0.254 0 0.496 0 0.75 0.055s0.595 0 0.904 0c0.309 0 0.816 0 1.19 0 0.37-0.024 0.737-0.068 1.102-0.132 0-1.235 0-2.458-0.121-3.593-0.072-1.069-0.208-2.133-0.408-3.185v-0.066c0.002-0.033 0.015-0.063 0.037-0.088s0.052-0.040 0.084-0.045c3.064 0.198 5.225 5.654 5.787 7.109 0.088-0.32 0.187-0.672 0.276-1.014 0.457-1.579 0.555-3.239 0.287-4.861-0.142-0.862-0.506-1.672-1.054-2.352s-1.264-1.206-2.076-1.528l-0.783-0.287c-0.031-0.004-0.059-0.019-0.081-0.040s-0.036-0.050-0.041-0.081c0-0.099 0.099-0.165 0.154-0.132 1.52 0.010 3.006 0.45 4.288 1.268-0.169-1.181-0.599-2.311-1.257-3.307-0.463-0.708-1.111-1.276-1.874-1.642-0.731-0.328-1.561-0.359-2.315-0.088-0.808 0.345-1.517 0.887-2.061 1.576-0.026 0.022-0.059 0.035-0.094 0.035s-0.068-0.012-0.094-0.035c-0.326-0.506-0.736-0.954-1.212-1.323-1.609-1.133-3.544-1.71-5.511-1.642-1.932-0.033-3.836 0.459-5.511 1.422-0.372 0.235-0.71 0.52-1.003 0.849 1.412-0.008 2.823 0.088 4.222 0.287 0.496 0.088 0.937 0.154 1.367 0.242s0.937 0.165 1.477 0.287v0.242l-0.628-0.099h-0.871c-4.508 0.132-5.225 5.996-5.511 8.52 0.75-1.036 2.899-3.814 4.806-4.607 0.305-0.123 0.618-0.226 0.937-0.309 0.066 0 0.154 0 0.154 0.066 0.009 0.018 0.014 0.037 0.014 0.057s-0.004 0.040-0.013 0.058c-0.008 0.018-0.021 0.034-0.036 0.046s-0.034 0.021-0.053 0.026c-4.31 1.422-3.847 6.525-3.505 8.961 0.652-1.658 1.527-3.219 2.601-4.64 0 0 0 0 0.088 0s0.121 0 0.154 0.099c0.086 0.532 0.365 1.015 0.783 1.356 0.452 0.339 1 0.524 1.565 0.529 0.626 0.005 1.23-0.232 1.686-0.661 0.219-0.193 0.393-0.43 0.511-0.697s0.177-0.555 0.173-0.846v-0.253c0.009-0.084 0.009-0.169 0-0.254-0.010-0.029-0.010-0.060 0-0.088 0.017-0.033 0.045-0.058 0.080-0.071s0.073-0.011 0.107 0.005l0.441 0.187c0.154 0.043 0.314 0.065 0.474 0.066 0.031 0.004 0.059 0.019 0.081 0.041s0.036 0.050 0.041 0.081c0 0.882 0 1.708-0.088 2.469l-0.165-0.022z"></path>
</svg>
