<!-- Generated by IcoMoon.io -->
<svg version="1.1" xmlns="http://www.w3.org/2000/svg" width="32" height="32" viewBox="0 0 32 32">
<title>puzzlequizzes</title>
<path fill="#fff" d="M14.070 31.992h12.51l0.807-4.279 0.899-4.836c-0.779 0.618-1.684 1.062-2.652 1.301s-1.978 0.267-2.959 0.083c-1.818-0.353-3.421-1.405-4.457-2.926s-1.423-3.385-1.074-5.187c0.163-0.892 0.503-1.742 1-2.504s1.14-1.418 1.894-1.932c0.754-0.514 1.603-0.875 2.498-1.063s1.819-0.199 2.719-0.032c1.817 0.353 3.419 1.405 4.456 2.925s1.423 3.384 1.076 5.185v0.025l-1.789 9.42-0.705 3.819h0.856c0.76-0.012 1.484-0.319 2.018-0.854s0.833-1.257 0.835-2.010v-23.405c0-0.758-0.302-1.486-0.841-2.025s-1.271-0.845-2.037-0.853h-10.013c-0.155 0.001-0.304 0.056-0.422 0.155s-0.197 0.236-0.223 0.387l-5.007 27.884c-0.017 0.136 0.008 0.274 0.071 0.395s0.163 0.221 0.285 0.285c0.079 0.032 0.163 0.048 0.248 0.048l0.009-0.008zM17.953-0.008h-15.074c-0.766 0.006-1.499 0.312-2.039 0.851s-0.841 1.268-0.84 2.027v16.733l1.472-8.79v-0.025c0.144-0.894 0.466-1.752 0.946-2.522s1.11-1.44 1.852-1.969c0.742-0.529 1.583-0.908 2.474-1.114s1.814-0.237 2.716-0.089c1.827 0.313 3.454 1.332 4.524 2.831s1.495 3.358 1.182 5.168c-0.144 0.894-0.466 1.751-0.946 2.522s-1.11 1.44-1.852 1.969-1.583 0.908-2.474 1.114c-0.891 0.206-1.814 0.236-2.716 0.087-0.986-0.166-1.924-0.542-2.749-1.102s-1.517-1.29-2.030-2.141l-0.839 4.87-1.227 7.223c0.245 0.46 0.611 0.846 1.059 1.117s0.963 0.416 1.488 0.42h10.036c0.153-0 0.302-0.053 0.422-0.148s0.202-0.229 0.235-0.377l4.989-27.91c0.020-0.136-0.004-0.274-0.068-0.396s-0.165-0.22-0.289-0.282c-0.079-0.036-0.164-0.056-0.251-0.057l-0.003-0.008zM9.195 6.771c1.38 0.241 2.607 1.012 3.415 2.146s1.13 2.537 0.896 3.905c-0.111 0.676-0.355 1.324-0.719 1.907s-0.841 1.089-1.402 1.489c-0.562 0.4-1.198 0.687-1.871 0.844s-1.372 0.181-2.055 0.070c-1.378-0.241-2.604-1.011-3.411-2.142s-1.131-2.533-0.899-3.899c0.111-0.676 0.355-1.324 0.719-1.907s0.841-1.089 1.402-1.489c0.562-0.4 1.198-0.687 1.871-0.844s1.372-0.181 2.055-0.070v-0.008zM24.931 12.296c1.374 0.266 2.586 1.060 3.37 2.209s1.076 2.558 0.812 3.92c-0.123 0.674-0.38 1.317-0.755 1.893s-0.862 1.072-1.432 1.46c-0.57 0.388-1.212 0.662-1.888 0.804s-1.375 0.15-2.055 0.024c-1.375-0.265-2.587-1.060-3.37-2.209s-1.075-2.559-0.809-3.921c0.123-0.674 0.379-1.317 0.754-1.893s0.861-1.072 1.431-1.46c0.57-0.389 1.211-0.662 1.888-0.804s1.375-0.15 2.055-0.024z"></path>
</svg>
