<!-- Generated by IcoMoon.io -->
<svg version="1.1" xmlns="http://www.w3.org/2000/svg" width="31" height="32" viewBox="0 0 31 32">
<title>remove</title>
<path fill="#fefefe" d="M12.955 22.095c0.608 0.296 1.261 0.489 1.933 0.572v-0.942c-0.56-0.107-1.106-0.277-1.628-0.505l-0.305 0.875zM17.974 22.095c0.645-0.299 1.258-0.659 1.831-1.077l-0.678-0.74c-0.482 0.372-1.005 0.689-1.56 0.942l0.407 0.875zM21.535 18.528c0.249-0.649 0.409-1.328 0.475-2.019h-0.984c-0.019 0.601-0.145 1.193-0.373 1.75l0.882 0.269zM21.535 13.413c-0.3-0.624-0.688-1.202-1.153-1.716l-0.678 0.673c0.382 0.437 0.701 0.924 0.95 1.447l0.882-0.404zM17.872 10.048c-0.65-0.244-1.34-0.37-2.035-0.37v0.942c0.568-0.004 1.132 0.099 1.662 0.303l0.373-0.875zM12.785 10.25c-0.628 0.298-1.211 0.683-1.73 1.144l0.644 0.774c0.442-0.405 0.931-0.755 1.458-1.043l-0.373-0.875zM9.394 14.019c-0.17 0.774-0.271 1.245-0.373 2.019h0.95c0.044-0.625 0.146-1.245 0.305-1.851l-0.882-0.168zM9.699 19.1c0.318 0.618 0.742 1.177 1.255 1.649l0.678-0.673c-0.441-0.419-0.808-0.908-1.085-1.447l-0.848 0.471z"></path>
<path fill="#fefefe" d="M28.351 21.22c-1.048-1.029-2.46-1.609-3.934-1.616-1.451 0.021-2.837 0.6-3.866 1.616-0.534 0.514-0.955 1.132-1.235 1.815s-0.414 1.418-0.393 2.156c-0.015 0.732 0.122 1.459 0.402 2.136s0.697 1.29 1.225 1.801c0.509 0.5 1.112 0.894 1.776 1.16s1.374 0.398 2.090 0.388c0.727 0.017 1.45-0.112 2.125-0.378s1.291-0.664 1.809-1.17c1.027-1.060 1.609-2.467 1.628-3.937-0.007-1.482-0.59-2.905-1.628-3.971zM24.417 18.629c0.859 0 1.708 0.17 2.5 0.5s1.51 0.812 2.112 1.419c1.212 1.248 1.892 2.911 1.899 4.644-0.039 1.717-0.715 3.358-1.899 4.611-0.606 0.598-1.326 1.070-2.118 1.387s-1.64 0.475-2.494 0.463c-0.843 0.005-1.679-0.156-2.459-0.474s-1.489-0.786-2.085-1.377c-1.222-1.227-1.905-2.885-1.899-4.611-0.013-0.861 0.148-1.715 0.475-2.513s0.811-1.522 1.425-2.131c0.593-0.601 1.3-1.079 2.080-1.408s1.617-0.503 2.465-0.51z"></path>
<path fill="#fefefe" d="M10.479 3.216c-0.513-0.529-1.13-0.948-1.812-1.231s-1.416-0.426-2.156-0.418c-0.736-0.014-1.466 0.126-2.143 0.41s-1.288 0.706-1.791 1.239c-1.023 1.021-1.607 2.397-1.628 3.837 0.007 1.482 0.59 2.905 1.628 3.971 1.044 1.038 2.456 1.63 3.934 1.649 1.485-0.031 2.903-0.621 3.968-1.649 1.010-1.076 1.557-2.501 1.526-3.971 0.017-1.428-0.531-2.805-1.526-3.837zM6.511 0.625c0.861-0.019 1.717 0.142 2.512 0.472s1.51 0.823 2.1 1.446c0.59 0.595 1.055 1.299 1.37 2.073s0.471 1.602 0.462 2.436c0.022 0.856-0.129 1.708-0.443 2.505s-0.786 1.525-1.388 2.139c-0.603 0.606-1.322 1.087-2.113 1.416s-1.641 0.5-2.499 0.502c-1.728-0.033-3.377-0.719-4.612-1.918-1.212-1.248-1.892-2.911-1.899-4.644 0.041-1.686 0.719-3.296 1.899-4.51 0.594-0.618 1.31-1.107 2.104-1.438s1.648-0.494 2.508-0.481z"></path>
<path fill="#fefefe" d="M21.569 9.341c0.639-2.272 1.936-4.308 3.73-5.856 0.71-0.689 1.555-1.226 2.483-1.579s1.917-0.514 2.91-0.474v0.976c-0.864-0.037-1.726 0.099-2.536 0.399s-1.551 0.76-2.178 1.351c-1.618 1.443-2.794 3.309-3.391 5.384l-1.017-0.202z"></path>
<path fill="#fefefe" d="M25.265 0.726h5.765v5.889h-0.95v-4.913h-4.816v-0.976z"></path>
</svg>
