<!-- Generated by IcoMoon.io -->
<svg version="1.1" xmlns="http://www.w3.org/2000/svg" width="52" height="32" viewBox="0 0 52 32">
<title>slidetouch</title>
<path fill="#fefefe" d="M35.986 1.029c2.198 0.034 4.296 0.926 5.845 2.487 0.758 0.778 1.353 1.7 1.75 2.712s0.588 2.092 0.562 3.179c0.013 1.059-0.185 2.109-0.582 3.090s-0.985 1.874-1.73 2.626c-0.759 0.787-1.667 1.415-2.67 1.85s-2.082 0.666-3.175 0.681c-1.086-0.016-2.159-0.248-3.154-0.683s-1.896-1.063-2.647-1.848c-0.751-0.75-1.345-1.641-1.75-2.622s-0.61-2.033-0.606-3.094c-0.018-1.089 0.181-2.171 0.585-3.182s1.006-1.932 1.77-2.708c1.533-1.558 3.616-2.451 5.801-2.487zM40.828 4.389c-1.278-1.305-3.016-2.057-4.842-2.095-1.855 0.019-3.627 0.773-4.929 2.095-1.287 1.35-1.992 3.152-1.963 5.018-0.011 1.81 0.695 3.552 1.963 4.843 0.637 0.668 1.401 1.202 2.248 1.569s1.758 0.561 2.681 0.569c0.909-0.017 1.804-0.215 2.636-0.583s1.581-0.896 2.206-1.556c0.67-0.614 1.203-1.363 1.564-2.198s0.541-1.736 0.53-2.645c0.020-0.936-0.156-1.866-0.517-2.73s-0.898-1.643-1.577-2.287z"></path>
<path fill="#fefefe" d="M28.44 30.133c0.997-0.006 1.982-0.207 2.901-0.594s1.752-0.951 2.453-1.66c0.701-0.709 1.255-1.549 1.631-2.473s0.567-1.912 0.561-2.909c-0.022-1.999-0.823-3.911-2.232-5.328s-3.315-2.23-5.314-2.264c-1.998 0.023-3.906 0.833-5.311 2.254s-2.192 3.339-2.192 5.338c-0.017 0.997 0.164 1.986 0.533 2.912s0.919 1.769 1.617 2.479c0.698 0.711 1.532 1.276 2.45 1.661s1.905 0.584 2.902 0.584z"></path>
<path fill="#fefefe" d="M28.44 30.744c-2.169 0.013-4.255-0.834-5.801-2.356-0.768-0.773-1.372-1.694-1.777-2.706s-0.601-2.095-0.578-3.185c-0.005-1.061 0.201-2.113 0.606-3.094s0.999-1.872 1.75-2.622c0.751-0.785 1.651-1.413 2.647-1.848s2.068-0.667 3.154-0.683c1.074 0.016 2.133 0.248 3.115 0.683s1.866 1.063 2.599 1.848c0.771 0.742 1.387 1.629 1.814 2.61s0.655 2.037 0.673 3.106c0.001 1.098-0.219 2.186-0.646 3.198s-1.053 1.928-1.84 2.693c-0.75 0.751-1.641 1.346-2.621 1.75s-2.032 0.61-3.093 0.606zM23.511 27.516c0.643 0.651 1.412 1.164 2.259 1.509s1.756 0.514 2.67 0.498c0.9 0.007 1.793-0.167 2.625-0.512s1.586-0.853 2.217-1.495c0.679-0.644 1.216-1.424 1.577-2.288s0.536-1.794 0.517-2.73c0.012-0.909-0.169-1.811-0.53-2.645s-0.894-1.584-1.564-2.198c-0.607-0.683-1.353-1.227-2.188-1.596s-1.74-0.554-2.653-0.542c-0.927-0.021-1.848 0.158-2.699 0.527s-1.612 0.919-2.23 1.61c-1.268 1.292-1.974 3.033-1.963 4.843-0.029 1.865 0.676 3.668 1.963 5.018z"></path>
<path fill="#fefefe" d="M43.531 29.654c1.851-0.017 3.628-0.734 4.973-2.007 1.287-1.35 1.992-3.152 1.963-5.018 0.011-1.811-0.695-3.552-1.963-4.843-0.642-0.674-1.413-1.211-2.268-1.578s-1.775-0.558-2.705-0.56c-0.927-0.021-1.848 0.159-2.699 0.528s-1.612 0.919-2.23 1.61c-1.268 1.292-1.974 3.033-1.963 4.843-0.029 1.865 0.676 3.667 1.963 5.018 0.643 0.651 1.411 1.164 2.259 1.509s1.755 0.514 2.67 0.498zM49.333 28.519c-1.546 1.522-3.632 2.369-5.801 2.356-2.169 0.013-4.255-0.834-5.801-2.356-0.768-0.773-1.372-1.694-1.777-2.706s-0.601-2.095-0.578-3.185c-0.005-1.061 0.201-2.113 0.606-3.094s0.999-1.872 1.75-2.622c0.751-0.785 1.651-1.414 2.647-1.848s2.068-0.667 3.155-0.683c1.086 0.016 2.159 0.248 3.154 0.683s1.896 1.063 2.647 1.848c0.759 0.744 1.359 1.634 1.764 2.616s0.606 2.037 0.592 3.1c0.033 1.091-0.159 2.177-0.564 3.191s-1.015 1.933-1.791 2.7z"></path>
<path fill="#fefefe" d="M6.325 16.127c-0.732-0.201-1.436-0.494-2.094-0.873l-0.611 1.135c0.764 0.445 1.586 0.783 2.443 1.003l0.262-1.265zM1.963 12.898c-0.363-0.667-0.613-1.39-0.741-2.138l-1.221 0.262c0.146 0.886 0.473 1.733 0.96 2.487l1.003-0.611zM1.352 7.269c0.249-0.701 0.57-1.374 0.96-2.007l-0.96-0.742c-0.534 0.7-0.92 1.502-1.134 2.356l1.134 0.393zM4.929 2.906c0.648-0.353 1.36-0.576 2.094-0.655v-1.222c-0.849 0.114-1.674 0.364-2.443 0.742l0.349 1.135zM10.512 2.644c0.681 0.25 1.304 0.636 1.832 1.135l0.873-1.003c-0.711-0.548-1.507-0.976-2.356-1.266l-0.349 1.135zM14.438 6.527c0.236 0.726 0.411 1.47 0.523 2.225h1.221c-0.099-0.894-0.305-1.773-0.611-2.618l-1.134 0.393zM14.438 12.156c-0.371 0.648-0.778 1.275-1.221 1.876l0.872 0.873c0.589-0.69 1.087-1.453 1.483-2.269l-1.134-0.48zM10.381 15.865c-0.726 0.205-1.472 0.337-2.225 0.392v1.265c0.879-0.044 1.747-0.22 2.574-0.524l-0.349-1.134z"></path>
<path fill="#fefefe" d="M6.718 18.745c0.855 1.985 2.264 3.681 4.057 4.887 1.702 1.021 3.721 1.378 5.67 1.004l0.262 1.265c-2.262 0.394-4.59-0.057-6.543-1.265-1.909-1.365-3.415-3.219-4.362-5.367l0.916-0.524z"></path>
<path fill="#fefefe" d="M13.217 20.403l4.842 4.887-4.929 4.843-0.872-0.873 4.057-3.971-3.926-4.014 0.829-0.873z"></path>
</svg>
