<svg width="200" height="74" viewBox="0 0 200 74" fill="none" xmlns="http://www.w3.org/2000/svg">
<path fill-rule="evenodd" clip-rule="evenodd" d="M0 74H180.635L178.692 71.976L178.432 71.7613C177.697 71.0102 177.285 69.9999 177.285 68.9476C177.285 67.8952 177.697 66.885 178.432 66.1339L178.6 66.0112L178.692 65.9192C179.34 65.2018 180.238 64.7623 181.201 64.6925C182.852 64.2743 184.362 63.4221 185.576 62.2238C185.667 62.1011 185.805 61.9631 185.881 61.8405L185.545 62.1778C187.259 60.4534 188.221 58.1183 188.221 55.684C188.221 53.2497 187.259 50.9146 185.545 49.1902C184.643 48.2761 183.557 47.5642 182.36 47.1017C181.163 46.6391 179.881 46.4364 178.6 46.5069H178.386H178.294H177.989H177.759H177.683H177.591H177.468H177.285H177.147H177.055H176.964H176.841H176.75H176.673H176.535H176.367H176.275H176.153H175.465H175.388H175.296H175.205H175.113H175.021H174.929H174.837H174.761H174.669L174.577 46.5989H174.486L174.363 46.7215V46.8135H174.272L174.18 46.9055V46.9975H174.088L173.996 47.0895C172.794 48.3118 171.957 49.8467 171.579 51.5209C171.473 52.4845 171.041 53.3827 170.356 54.0663L170.279 54.1583L170.142 54.2963C169.782 54.6706 169.351 54.9683 168.874 55.1716C168.397 55.375 167.884 55.4798 167.365 55.4798C166.847 55.4798 166.334 55.375 165.857 55.1716C165.38 54.9683 164.949 54.6706 164.589 54.2963L164.329 54.0663L157.354 46.9975C156.627 46.2453 156.22 45.2389 156.22 44.1915C156.22 43.144 156.627 42.1377 157.354 41.3854L169.239 29.3485C169.644 28.9477 169.966 28.4702 170.185 27.9438C170.405 27.4173 170.518 26.8524 170.518 26.2818C170.518 25.7112 170.405 25.1463 170.185 24.6198C169.966 24.0934 169.644 23.6159 169.239 23.2151C168.731 22.7076 168.106 22.3337 167.419 22.1264C165.606 21.7867 163.94 20.8984 162.646 19.581C160.928 17.856 159.962 15.5176 159.962 13.0796C159.962 10.6415 160.928 8.30317 162.646 6.57813C163.485 5.72555 164.483 5.04853 165.585 4.58642C166.687 4.1243 167.869 3.88633 169.063 3.88633C170.257 3.88633 171.44 4.1243 172.541 4.58642C173.643 5.04853 174.642 5.72555 175.48 6.57813C176.842 7.95311 177.736 9.72394 178.034 11.6382C178.217 12.2671 178.56 12.8377 179.029 13.2943C179.418 13.7015 179.886 14.0255 180.404 14.2469C180.922 14.4682 181.479 14.5823 182.042 14.5823C182.605 14.5823 183.162 14.4682 183.68 14.2469C184.198 14.0255 184.666 13.7015 185.055 13.2943L196.941 1.27272C197.34 0.873982 197.819 0.565134 198.347 0.366822C198.874 0.16851 199.438 0.0852951 200 0.122695V0H0V74Z" fill="#FFA629"/>
</svg>
